<?xml version="1.0" standalone="no"?><!DOCTYPE svg PUBLIC "-//W3C//DTD SVG 1.1//EN" "http://www.w3.org/Graphics/SVG/1.1/DTD/svg11.dtd"><svg t="1561571993714" class="icon" viewBox="0 0 1024 1024" version="1.1" xmlns="http://www.w3.org/2000/svg" p-id="3412" xmlns:xlink="http://www.w3.org/1999/xlink" width="200" height="200"><defs><style type="text/css"></style></defs><path d="M246.01 909.988a26.04 26.04 0 0 1-25.804-29.63l16.297-117.432h-28.826c-39.777 0-72.13-32.358-72.13-72.136V270.674c0-39.772 32.358-72.13 72.13-72.13h611c39.778 0 72.131 32.358 72.131 72.13V690.8c0 39.782-32.353 72.135-72.13 72.135H477.865l-217.56 142.787a26.045 26.045 0 0 1-14.294 4.265z m-38.333-659.344a20.055 20.055 0 0 0-20.029 20.03V690.8a20.05 20.05 0 0 0 20.03 20.024h58.751a26.035 26.035 0 0 1 25.8 29.635l-12.518 90.199L455.788 715.1a25.984 25.984 0 0 1 14.295-4.275h348.6a20.06 20.06 0 0 0 20.03-20.024V270.674a20.055 20.055 0 0 0-20.03-20.03H207.677z" fill="#2C2C2C" p-id="3413"></path><path d="M329.825 442.506a26.23 26.23 0 0 1-26.199-26.199 26.225 26.225 0 0 1 26.2-26.199h357.949a26.225 26.225 0 0 1 26.194 26.2 26.225 26.225 0 0 1-26.194 26.198h-357.95z m0 127.806a26.23 26.23 0 0 1-26.199-26.2 26.23 26.23 0 0 1 26.2-26.193H571.99a26.225 26.225 0 0 1 26.194 26.194 26.23 26.23 0 0 1-26.194 26.199H329.825z" fill="#2C2C2C" p-id="3414"></path></svg>